<?xml version="1.0" encoding="iso-8859-1"?>
<!-- Uploaded to: SVG Repo, www.svgrepo.com, Generator: SVG Repo Mixer Tools -->
<svg fill="#000000" height="800px" width="800px" version="1.1" id="Layer_1" xmlns="http://www.w3.org/2000/svg" xmlns:xlink="http://www.w3.org/1999/xlink" 
	 viewBox="0 0 512 512" xml:space="preserve">
<g>
	<g>
		<circle cx="204.82" cy="244.009" r="28.14"/>
	</g>
</g>
<g>
	<g>
		<circle cx="307.2" cy="244.009" r="28.14"/>
	</g>
</g>
<g>
	<g>
		<polygon points="256.012,289.205 236.442,323.1 275.581,323.1 		"/>
	</g>
</g>
<g>
	<g>
		<path d="M443.007,373.461l-49.543-49.543c10.335-20.911,15.901-44.123,15.901-67.919c0-24.378-5.728-47.44-15.893-67.927
			l49.535-49.535c18.248,7.292,39.607,3.377,54.247-11.263c19.661-19.659,19.661-51.65,0.001-71.31
			c-6.788-6.786-15.151-11.381-24.194-13.475c-2.094-9.042-6.687-17.405-13.474-24.193c-19.662-19.659-51.651-19.659-71.31,0
			c-14.641,14.639-18.556,35.995-11.263,54.248l-48.405,48.405c-21.624-11.669-46.349-18.301-72.596-18.301
			s-50.972,6.632-72.595,18.303l-48.406-48.406c7.294-18.251,3.378-39.607-11.262-54.248c-19.661-19.661-51.651-19.662-71.31,0
			c-6.786,6.786-11.381,15.151-13.475,24.193c-9.041,2.094-17.407,6.689-24.193,13.475C5.245,65.488,0,78.151,0,91.621
			c0,13.47,5.245,26.132,14.769,35.655c14.639,14.639,35.995,18.554,54.248,11.263l49.535,49.535
			c-10.165,20.487-15.892,43.549-15.892,67.927c0,23.796,5.565,47.008,15.899,67.919l-49.543,49.543
			c-18.254-7.295-39.608-3.378-54.248,11.262C5.245,394.248,0,406.91,0,420.379s5.245,26.132,14.77,35.656
			c6.787,6.788,15.151,11.381,24.193,13.475c2.094,9.042,6.689,17.407,13.475,24.193c9.83,9.831,22.743,14.745,35.655,14.745
			s25.825-4.915,35.656-14.746c14.641-14.641,18.556-35.995,11.262-54.248l15.427-15.427l0.653,1.02
			c1.351,2.109,33.904,51.644,104.92,51.644s103.569-49.536,104.919-51.644l0.653-1.02l15.427,15.429
			c-7.293,18.251-3.377,39.607,11.263,54.247c9.831,9.832,22.741,14.747,35.655,14.746c12.912-0.001,25.826-4.917,35.657-14.746
			c6.787-6.786,11.38-15.15,13.474-24.193c9.042-2.094,17.407-6.689,24.192-13.475c19.661-19.661,19.661-51.651,0-71.31
			C482.613,370.082,461.258,366.168,443.007,373.461z M420.352,76.429l-9.608-11.699c-5.573-6.785-5.081-16.597,1.143-22.822
			c6.642-6.64,17.447-6.641,24.086,0c3.74,3.74,5.506,8.909,4.846,14.182l-2.667,21.309l21.309-2.668
			c5.274-0.657,10.442,1.105,14.181,4.846c6.641,6.641,6.641,17.446,0,24.086c-6.224,6.224-16.037,6.719-22.822,1.143l-11.7-9.608
			l-64.145,64.147c-5.598-6.877-11.773-13.264-18.461-19.08L420.352,76.429z M72.902,95.199l-11.699,9.607
			c-6.785,5.573-16.596,5.082-22.822-1.144c-3.218-3.216-4.989-7.492-4.989-12.041s1.771-8.827,4.988-12.044
			c3.74-3.74,8.905-5.505,14.181-4.846l21.308,2.668L71.202,56.09c-0.66-5.273,1.106-10.442,4.846-14.182
			c6.64-6.641,17.445-6.64,24.086,0c6.224,6.226,6.716,16.036,1.143,22.822L91.67,76.428l63.838,63.837
			c-6.687,5.815-12.863,12.203-18.461,19.08L72.902,95.199z M91.672,435.57l9.608,11.699c5.573,6.786,5.081,16.597-1.143,22.822
			c-6.641,6.641-17.447,6.641-24.086,0c-3.74-3.74-5.506-8.909-4.846-14.182l2.665-21.31l-21.308,2.668
			c-5.277,0.658-10.442-1.107-14.181-4.846c-3.217-3.217-4.988-7.495-4.988-12.044s1.771-8.826,4.989-12.043
			c6.224-6.224,16.035-6.716,22.822-1.143l11.699,9.607l64.114-64.114c3.564,4.39,7.374,8.605,11.438,12.607v13.496h0.001
			L91.672,435.57z M335.766,345.595l-5.59,4.98v59.879c-2.797,3.353-7.827,8.731-15.141,14.133
			c-3.852,2.846-7.873,5.354-12.039,7.555v-38.079h-33.393v48.406c-4.421,0.541-8.949,0.829-13.591,0.829
			c-4.641,0-9.167-0.288-13.59-0.831v-48.404h-33.393v38.073c-3.772-1.991-7.427-4.231-10.943-6.75
			c-7.891-5.653-13.284-11.397-16.239-14.942v-59.869l-5.59-4.98c-25.551-22.762-40.205-55.419-40.205-89.596
			c0-66.146,53.814-119.959,119.959-119.959c66.147,0,119.959,53.814,119.959,119.959
			C375.971,290.175,361.317,322.831,335.766,345.595z M473.642,432.422c-3.739,3.739-8.91,5.504-14.18,4.846l-21.309-2.668
			l2.667,21.309c0.66,5.273-1.106,10.442-4.846,14.181c-6.642,6.642-17.445,6.641-24.087,0c-6.226-6.224-6.716-16.035-1.143-22.822
			l9.608-11.699l-56.783-56.782v-13.495c4.064-4.002,7.873-8.217,11.438-12.607l64.115,64.115l11.699-9.608
			c6.787-5.572,16.595-5.081,22.822,1.143C480.282,414.977,480.282,425.782,473.642,432.422z"/>
	</g>
</g>
</svg>